<?xml version="1.0" encoding="utf-8"?>
<svg viewBox="0 -960 960 960" fill="#000000" xmlns="http://www.w3.org/2000/svg">
  <path d="M 544.931 -825.696 L 544.931 -650.537 C 544.931 -617.84 539.967 -593.61 530.041 -577.846 C 520.116 -562.082 506.979 -546.609 490.632 -531.428 L 540.551 -481.507 C 547.558 -487.929 554.272 -494.791 560.696 -502.09 C 567.117 -509.387 573.54 -517.124 579.962 -525.298 C 588.136 -514.204 596.456 -504.425 604.922 -495.958 C 613.389 -487.492 622 -479.172 630.758 -470.998 C 652.945 -450.563 673.088 -426.918 691.188 -400.06 C 709.289 -373.202 718.922 -326.201 720.089 -259.057 L 664.914 -314.232 L 614.994 -265.187 L 755.121 -125.059 L 895.249 -265.187 L 846.204 -314.232 L 790.153 -259.057 C 788.986 -342.547 776.14 -401.957 751.618 -437.281 C 727.095 -472.604 702.573 -501.36 678.051 -523.546 C 659.368 -540.477 644.186 -556.973 632.51 -573.028 C 620.833 -589.085 614.994 -614.921 614.994 -650.537 L 614.994 -825.696 L 544.931 -825.696 Z M 376.777 -341.38 C 374.442 -329.704 372.836 -316.859 371.961 -302.846 C 371.085 -288.832 370.355 -274.236 369.771 -259.057 L 313.721 -314.232 L 264.676 -265.187 L 404.803 -125.059 L 544.931 -265.187 L 495.01 -314.232 L 439.835 -259.932 C 439.835 -272.193 440.419 -283.725 441.586 -294.526 C 442.754 -305.327 443.922 -315.399 445.089 -324.741 L 376.777 -341.38 Z M 452.095 -495.521 C 440.419 -483.26 429.179 -468.955 418.378 -452.607 C 407.577 -436.258 398.088 -416.115 389.914 -392.178 L 457.35 -375.537 C 463.189 -391.301 469.903 -404.73 477.494 -415.824 C 485.085 -426.918 493.259 -436.843 502.016 -445.6 L 452.095 -495.521 Z" style="transform-origin: 579.962px -475.378px;" transform="matrix(0, -1, 1, 0, 0.000061969164, 0.00005652261)"/>
  <path d="M 196.657 -749.168 L 364.544 -477.547 L 196.657 -205.926 L 28.77 -477.547 Z" style="paint-order: stroke; stroke: rgb(255, 255, 255); stroke-width: 20px;" transform="matrix(1, 0, 0, 1, 1.1368683772161603e-13, 2.2737367544323206e-13)"/>
</svg>