<svg xmlns="http://www.w3.org/2000/svg" viewBox="0 0 512 512" xml:space="preserve">
                        <circle cx="255.965" cy="241.851" r="62.373" />
                        <path
                            d="M255.968 320.246c-20.94 0-40.625-8.156-55.432-22.961-14.806-14.807-22.961-34.492-22.961-55.433 0-20.938 8.154-40.623 22.961-55.432 14.807-14.806 34.492-22.96 55.432-22.96s40.625 8.154 55.432 22.96c14.806 14.807 22.961 34.492 22.961 55.432s-8.154 40.625-22.961 55.433c-14.807 14.805-34.492 22.961-55.432 22.961m0-124.745c-12.382 0-24.022 4.82-32.775 13.577-8.755 8.755-13.577 20.395-13.577 32.775 0 12.382 4.822 24.022 13.577 32.777s20.395 13.578 32.775 13.578 24.022-4.822 32.775-13.578c8.755-8.755 13.577-20.393 13.577-32.777 0-12.38-4.822-24.02-13.577-32.775-8.753-8.756-20.394-13.577-32.775-13.577m0 226.982c-75.569 0-151.139-13.588-223.06-40.764-8.277-3.127-12.451-12.372-9.324-20.648s12.369-12.447 20.648-9.324c136.539 51.592 286.929 51.592 423.47 0 8.277-3.129 17.521 1.046 20.648 9.324 3.127 8.276-1.046 17.521-9.324 20.648-71.918 27.174-147.489 40.764-223.058 40.764" />
                        <path
                            d="M103.17 387.133H71.641C107.486 452.025 176.59 495.98 255.968 495.98c79.38 0 148.483-43.955 184.327-108.847h-31.53a615 615 0 0 1-305.595 0" />
                        <path
                            d="M255.968 512c-82.443 0-158.446-44.88-198.349-117.121a16.02 16.02 0 0 1 .226-15.887 16.02 16.02 0 0 1 13.796-7.879h31.53c1.342 0 2.68.168 3.981.501 48.582 12.462 98.652 18.78 148.818 18.78s100.234-6.317 148.818-18.78a16 16 0 0 1 3.981-.501h31.53c5.669 0 10.916 2.996 13.796 7.879s2.967 10.924.226 15.887C414.414 467.12 338.411 512 255.968 512M101.145 403.152c36.476 47.96 93.581 76.807 154.824 76.807s118.348-28.848 154.824-76.807h-.016c-50.565 12.795-102.634 19.281-154.806 19.281s-104.241-6.486-154.806-19.281zm3.806-206.435a43.33 43.33 0 0 1-33.228-15.472l-44.399-52.79c-13.098-15.573-13.538-38.536-1.046-54.6l44.399-57.091C78.964 6.108 91.456 0 104.951 0c13.497 0 25.989 6.108 34.274 16.762l33.771 43.427c5.431 6.983 4.172 17.05-2.811 22.479-6.981 5.431-17.048 4.173-22.481-2.811l-33.771-43.425c-2.972-3.821-6.903-4.391-8.982-4.391s-6.009.57-8.982 4.393l-44.397 57.09c-3.273 4.21-3.159 10.229.274 14.311l44.399 52.79c2.967 3.528 6.73 4.055 8.708 4.055s5.742-.527 8.71-4.055l30.981-36.836c5.695-6.775 15.799-7.641 22.572-1.946 6.77 5.697 7.641 15.802 1.945 22.572l-30.976 36.833a43.36 43.36 0 0 1-33.234 15.469" />
                        <path
                            d="M104.951 239.98c-8.848 0-16.02-7.174-16.02-16.02v-43.987c0-8.846 7.172-16.02 16.02-16.02s16.02 7.174 16.02 16.02v43.987c0 8.847-7.172 16.02-16.02 16.02m318.433-43.263a43.33 43.33 0 0 1-33.228-15.472l-44.399-52.79c-13.098-15.574-13.537-38.537-1.044-54.6l44.397-57.091C397.395 6.108 409.887 0 423.384 0c13.495 0 25.987 6.108 34.273 16.762l33.773 43.427c5.431 6.983 4.172 17.05-2.811 22.479s-17.05 4.173-22.481-2.811l-33.771-43.425c-2.972-3.821-6.903-4.391-8.981-4.391s-6.011.57-8.982 4.393l-44.397 57.09c-3.274 4.21-3.159 10.229.274 14.311l44.399 52.79c2.967 3.528 6.728 4.055 8.708 4.055 1.978 0 5.74-.527 8.708-4.055l30.981-36.836c5.695-6.772 15.8-7.641 22.572-1.946 6.77 5.697 7.641 15.802 1.945 22.572l-30.976 36.833a43.36 43.36 0 0 1-33.234 15.469" />
                        <path
                            d="M423.384 239.98c-8.848 0-16.02-7.174-16.02-16.02v-43.987c0-8.846 7.172-16.02 16.02-16.02s16.02 7.174 16.02 16.02v43.987c-.001 8.847-7.173 16.02-16.02 16.02" />
                    </svg>