<?xml version="1.0" standalone="no"?>
<!DOCTYPE svg PUBLIC "-//W3C//DTD SVG 20010904//EN"
 "http://www.w3.org/TR/2001/REC-SVG-20010904/DTD/svg10.dtd">
<svg version="1.0" xmlns="http://www.w3.org/2000/svg"
 width="67.000000pt" height="134.000000pt" viewBox="0 0 67.000000 134.000000"
 preserveAspectRatio="xMidYMid meet">

<g transform="translate(0.000000,134.000000) scale(0.100000,-0.100000)"
fill="#000000" stroke="none">
<path d="M0 1250 c0 -73 3 -90 15 -90 12 0 15 15 15 75 l0 75 55 0 c42 0 55 3
55 15 0 12 -14 15 -70 15 l-70 0 0 -90z"/>
<path d="M230 1325 c0 -12 18 -15 105 -15 87 0 105 3 105 15 0 12 -18 15 -105
15 -87 0 -105 -3 -105 -15z"/>
<path d="M530 1325 c0 -12 13 -15 55 -15 l55 0 0 -75 c0 -60 3 -75 15 -75 12
0 15 17 15 90 l0 90 -70 0 c-56 0 -70 -3 -70 -15z"/>
<path d="M0 875 c0 -96 3 -115 15 -115 12 0 15 19 15 115 0 96 -3 115 -15 115
-12 0 -15 -19 -15 -115z"/>
<path d="M640 875 c0 -96 3 -115 15 -115 12 0 15 19 15 115 0 96 -3 115 -15
115 -12 0 -15 -19 -15 -115z"/>
<path d="M0 465 c0 -96 3 -115 15 -115 12 0 15 19 15 115 0 96 -3 115 -15 115
-12 0 -15 -19 -15 -115z"/>
<path d="M640 465 c0 -96 3 -115 15 -115 12 0 15 19 15 115 0 96 -3 115 -15
115 -12 0 -15 -19 -15 -115z"/>
<path d="M0 90 l0 -90 70 0 c56 0 70 3 70 15 0 12 -13 15 -55 15 l-55 0 0 75
c0 60 -3 75 -15 75 -12 0 -15 -17 -15 -90z"/>
<path d="M640 105 l0 -75 -55 0 c-42 0 -55 -3 -55 -15 0 -12 14 -15 70 -15
l70 0 0 90 c0 73 -3 90 -15 90 -12 0 -15 -15 -15 -75z"/>
<path d="M230 15 c0 -12 18 -15 105 -15 87 0 105 3 105 15 0 12 -18 15 -105
15 -87 0 -105 -3 -105 -15z"/>
</g>
</svg>
