<?xml version="1.0" encoding="utf-8"?>
<svg viewBox="0 -960 960 960" height="25" width="25" fill="#000000" xmlns="http://www.w3.org/2000/svg">
  <ellipse style="stroke: rgb(0, 0, 0); fill: rgb(255, 255, 255);" cx="641.61" cy="-701.351" rx="224.151" ry="113.732"/>
  <ellipse style="stroke: rgb(0, 0, 0); fill: rgb(255, 255, 255); stroke-width: 0px;" cx="411.938" cy="-235.382" rx="231.88" ry="136.92"/>
  <path d="M 314.773 -45.055 C 298.773 -45.055 283.44 -48.055 268.773 -54.055 C 254.107 -60.055 241.107 -68.722 229.773 -80.055 L 25.773 -285.055 L 58.773 -319.055 C 68.107 -328.388 79.44 -334.722 92.773 -338.055 C 106.107 -341.388 119.44 -341.388 132.773 -338.055 L 201.773 -318.055 L 201.773 -645.055 C 201.773 -656.388 205.607 -665.888 213.273 -673.555 C 220.94 -681.222 230.44 -685.055 241.773 -685.055 C 253.107 -685.055 262.607 -681.222 270.273 -673.555 C 277.94 -665.888 281.773 -656.388 281.773 -645.055 L 281.773 -212.055 L 183.773 -240.055 L 286.773 -137.055 C 290.773 -133.055 295.107 -130.055 299.773 -128.055 C 304.44 -126.055 309.44 -125.055 314.773 -125.055 L 481.773 -125.055 C 503.773 -125.055 522.607 -132.888 538.273 -148.555 C 553.94 -164.222 561.773 -183.055 561.773 -205.055 L 561.773 -365.055 C 561.773 -376.388 565.607 -385.888 573.273 -393.555 C 580.94 -401.222 590.44 -405.055 601.773 -405.055 C 613.107 -405.055 622.607 -401.222 630.273 -393.555 C 637.94 -385.888 641.773 -376.388 641.773 -365.055 L 641.773 -205.055 C 641.773 -161.055 626.107 -123.388 594.773 -92.055 C 563.44 -60.722 525.773 -45.055 481.773 -45.055 L 314.773 -45.055 Z M 321.773 -325.055 L 321.773 -485.055 C 321.773 -496.388 325.607 -505.888 333.273 -513.555 C 340.94 -521.222 350.44 -525.055 361.773 -525.055 C 373.107 -525.055 382.607 -521.222 390.273 -513.555 C 397.94 -505.888 401.773 -496.388 401.773 -485.055 L 401.773 -325.055 L 321.773 -325.055 Z M 441.773 -325.055 L 441.773 -445.055 C 441.773 -456.388 445.607 -465.888 453.273 -473.555 C 460.94 -481.222 470.44 -485.055 481.773 -485.055 C 493.107 -485.055 502.607 -481.222 510.273 -473.555 C 517.94 -465.888 521.773 -456.388 521.773 -445.055 L 521.773 -325.055 L 441.773 -325.055 Z M 481.773 -125.055 L 286.773 -125.055 L 481.773 -125.055 Z M 641.773 -525.055 C 581.107 -525.055 525.107 -541.055 473.773 -573.055 C 422.44 -605.055 385.107 -649.055 361.773 -705.055 C 385.107 -761.055 422.44 -805.055 473.773 -837.055 C 525.107 -869.055 581.107 -885.055 641.773 -885.055 C 702.44 -885.055 758.44 -869.055 809.773 -837.055 C 861.107 -805.055 898.44 -761.055 921.773 -705.055 C 898.44 -649.055 861.107 -605.055 809.773 -573.055 C 758.44 -541.055 702.44 -525.055 641.773 -525.055 Z M 641.773 -605.055 C 679.773 -605.055 715.607 -613.722 749.273 -631.055 C 782.94 -648.388 810.44 -673.055 831.773 -705.055 C 810.44 -737.055 782.94 -761.722 749.273 -779.055 C 715.607 -796.388 679.773 -805.055 641.773 -805.055 C 603.773 -805.055 567.94 -796.388 534.273 -779.055 C 500.607 -761.722 473.107 -737.055 451.773 -705.055 C 473.107 -673.055 500.607 -648.388 534.273 -631.055 C 567.94 -613.722 603.773 -605.055 641.773 -605.055 Z M 641.773 -645.055 C 625.107 -645.055 610.94 -650.888 599.273 -662.555 C 587.607 -674.222 581.773 -688.388 581.773 -705.055 C 581.773 -721.722 587.607 -735.888 599.273 -747.555 C 610.94 -759.222 625.107 -765.055 641.773 -765.055 C 658.44 -765.055 672.607 -759.222 684.273 -747.555 C 695.94 -735.888 701.773 -721.722 701.773 -705.055 C 701.773 -688.388 695.94 -674.222 684.273 -662.555 C 672.607 -650.888 658.44 -645.055 641.773 -645.055 Z"/>
</svg>