<?xml version="1.0" encoding="utf-8"?>
<svg height="25px" width="25px" viewBox="0 -960 960 960" fill="#000000" xmlns="http://www.w3.org/2000/svg">
  <ellipse style="stroke: rgb(0, 0, 0); stroke-width: 0px; fill: rgb(255, 255, 255);" cx="473.108" cy="-486.912" rx="416.396" ry="416.396"/>
  <path d="M 432.302 -252.632 L 523.997 -252.632 L 523.997 -527.718 L 432.302 -527.718 L 432.302 -252.632 Z M 478.149 -619.414 C 491.14 -619.414 502.029 -623.807 510.816 -632.594 C 519.604 -641.383 523.997 -652.271 523.997 -665.261 C 523.997 -678.252 519.604 -689.14 510.816 -697.927 C 502.029 -706.715 491.14 -711.109 478.149 -711.109 C 465.159 -711.109 454.271 -706.715 445.483 -697.927 C 436.696 -689.14 432.302 -678.252 432.302 -665.261 C 432.302 -652.271 436.696 -641.383 445.483 -632.594 C 454.271 -623.807 465.159 -619.414 478.149 -619.414 Z M 478.149 -23.394 C 414.727 -23.394 355.125 -35.429 299.343 -59.499 C 243.562 -83.569 195.04 -116.235 153.777 -157.498 C 112.515 -198.761 79.848 -247.283 55.778 -303.064 C 31.708 -358.846 19.673 -418.448 19.673 -481.871 C 19.673 -545.293 31.708 -604.895 55.778 -660.677 C 79.848 -716.458 112.515 -764.98 153.777 -806.243 C 195.04 -847.505 243.562 -880.172 299.343 -904.242 C 355.125 -928.312 414.727 -940.347 478.149 -940.347 C 541.572 -940.347 601.174 -928.312 656.956 -904.242 C 712.737 -880.172 761.259 -847.505 802.522 -806.243 C 843.785 -764.98 876.451 -716.458 900.521 -660.677 C 924.591 -604.895 936.626 -545.293 936.626 -481.871 C 936.626 -418.448 924.591 -358.846 900.521 -303.064 C 876.451 -247.283 843.785 -198.761 802.522 -157.498 C 761.259 -116.235 712.737 -83.569 656.956 -59.499 C 601.174 -35.429 541.572 -23.394 478.149 -23.394 Z M 478.149 -115.089 C 580.543 -115.089 667.271 -150.62 738.335 -221.685 C 809.4 -292.749 844.931 -379.477 844.931 -481.871 C 844.931 -584.264 809.4 -670.992 738.335 -742.056 C 667.271 -813.12 580.543 -848.652 478.149 -848.652 C 375.756 -848.652 289.028 -813.12 217.964 -742.056 C 146.9 -670.992 111.368 -584.264 111.368 -481.871 C 111.368 -379.477 146.9 -292.749 217.964 -221.685 C 289.028 -150.62 375.756 -115.089 478.149 -115.089 Z M 478.149 -481.871 Z" style=""/>
</svg>