<?xml version="1.0" encoding="utf-8"?>
<svg viewBox="0 -960 960 960" fill="#000000" xmlns="http://www.w3.org/2000/svg">
  <path d="M 480 -80 L 310 -250 L 440 -234 L 440 -563.62 L 520 -400 L 520 -235 L 650 -250 L 480 -80 Z M 250 -310 L 80 -480 L 249 -649 L 234 -520 L 400 -520 L 725.481 -440 L 235 -440 L 250 -310 Z M 710 -310 L 726 -440 L 560 -440 L 260.909 -520 L 725 -520 L 710 -650 L 880 -480 L 710 -310 Z M 440 -560 L 440 -726 L 310 -710 L 480 -880 L 650 -710 L 520 -726 L 520 -380.545 L 440 -560 Z" style="stroke-linejoin: round; fill: rgb(255, 255, 255); paint-order: stroke; fill-rule: nonzero; stroke-width: 50px; stroke: rgb(0, 0, 0);" transform="matrix(1, 0, 0, 1, 2.842170943040401e-14, 0)"/>
</svg>