<?xml version="1.0" encoding="utf-8"?>
<svg viewBox="0 -960 960 960" fill="#11e111" xmlns="http://www.w3.org/2000/svg">
  <path d="M 161.265 -268.055 L 122.636 -334.132 L 45.885 -349.889 L 54.525 -424.607 L 5.73 -481.535 L 54.525 -537.954 L 45.885 -612.672 L 122.636 -628.429 L 161.265 -695.015 L 229.375 -663.501 L 297.486 -695.015 L 336.624 -628.429 L 412.866 -612.672 L 404.226 -537.954 L 453.021 -481.535 L 404.226 -424.607 L 412.866 -349.889 L 336.624 -334.132 L 297.486 -268.055 L 229.375 -299.569 L 161.265 -268.055 Z M 174.989 -308.21 L 229.375 -331.082 L 285.287 -308.21 L 319.342 -359.038 L 378.811 -374.287 L 372.712 -434.773 L 413.883 -481.535 L 372.712 -529.314 L 378.811 -589.8 L 319.342 -604.032 L 284.27 -654.86 L 229.375 -631.987 L 173.464 -654.86 L 139.409 -604.032 L 79.94 -589.8 L 86.039 -529.314 L 44.868 -481.535 L 86.039 -434.773 L 79.94 -373.27 L 139.409 -359.038 L 174.989 -308.21 Z M 229.375 -481.535 Z M 207.519 -413.933 L 322.9 -528.297 L 300.027 -549.137 L 207.519 -454.952 L 159.232 -507.966 L 135.851 -485.093 L 207.519 -413.933 Z" style=""/>
  <text style="font-family: Arial, sans-serif; font-size: 269px; font-weight: 700; white-space: pre;" x="470.916" y="-380.934">OK!</text>
</svg>