<?xml version="1.0" encoding="utf-8"?>
<svg viewBox="0 -960 960 960"  height="38px"  width="38px" fill="#000" xmlns="http://www.w3.org/2000/svg">
  <path
    d="M 560 -564 L 560 -632 C 582 -641.333 604.5 -648.333 627.5 -653 C 650.5 -657.667 674.667 -660 700 -660 C 717.333 -660 734.333 -658.667 751 -656 C 767.667 -653.333 784 -650 800 -646 L 800 -582 C 784 -588 767.833 -592.5 751.5 -595.5 C 735.167 -598.5 718 -600 700 -600 C 674.667 -600 650.333 -596.833 627 -590.5 C 603.667 -584.167 581.333 -575.333 560 -564 Z M 560 -344 L 560 -412 C 582 -421.333 604.5 -428.333 627.5 -433 C 650.5 -437.667 674.667 -440 700 -440 C 717.333 -440 734.333 -438.667 751 -436 C 767.667 -433.333 784 -430 800 -426 L 800 -362 C 784 -368 767.833 -372.5 751.5 -375.5 C 735.167 -378.5 718 -380 700 -380 C 674.667 -380 650.333 -377 627 -371 C 603.667 -365 581.333 -356 560 -344 Z M 560 -454 L 560 -522 C 582 -531.333 604.5 -538.333 627.5 -543 C 650.5 -547.667 674.667 -550 700 -550 C 717.333 -550 734.333 -548.667 751 -546 C 767.667 -543.333 784 -540 800 -536 L 800 -472 C 784 -478 767.833 -482.5 751.5 -485.5 C 735.167 -488.5 718 -490 700 -490 C 674.667 -490 650.333 -486.833 627 -480.5 C 603.667 -474.167 581.333 -465.333 560 -454 Z M 260 -320 C 291.333 -320 321.833 -316.5 351.5 -309.5 C 381.167 -302.5 410.667 -292 440 -278 L 440 -672 C 412.667 -688 383.667 -700 353 -708 C 322.333 -716 291.333 -720 260 -720 C 236 -720 212.167 -717.667 188.5 -713 C 164.833 -708.333 142 -701.333 120 -692 L 120 -296 C 143.333 -304 166.5 -310 189.5 -314 C 212.5 -318 236 -320 260 -320 Z M 520 -278 C 549.333 -292 578.833 -302.5 608.5 -309.5 C 638.167 -316.5 668.667 -320 700 -320 C 724 -320 747.5 -318 770.5 -314 C 793.5 -310 816.667 -304 840 -296 L 840 -692 C 818 -701.333 795.167 -708.333 771.5 -713 C 747.833 -717.667 724 -720 700 -720 C 668.667 -720 637.667 -716 607 -708 C 576.333 -700 547.333 -688 520 -672 L 520 -278 Z M 480 -160 C 448 -185.333 413.333 -205 376 -219 C 338.667 -233 300 -240 260 -240 C 232 -240 204.5 -236.333 177.5 -229 C 150.5 -221.667 124.667 -211.333 100 -198 C 86 -190.667 72.5 -191 59.5 -199 C 46.5 -207 40 -218.667 40 -234 L 40 -716 C 40 -723.333 41.833 -730.333 45.5 -737 C 49.167 -743.667 54.667 -748.667 62 -752 C 92.667 -768 124.667 -780 158 -788 C 191.333 -796 225.333 -800 260 -800 C 298.667 -800 336.5 -795 373.5 -785 C 410.5 -775 446 -760 480 -740 C 514 -760 549.5 -775 586.5 -785 C 623.5 -795 661.333 -800 700 -800 C 734.667 -800 768.667 -796 802 -788 C 835.333 -780 867.333 -768 898 -752 C 905.333 -748.667 910.833 -743.667 914.5 -737 C 918.167 -730.333 920 -723.333 920 -716 L 920 -234 C 920 -218.667 913.5 -207 900.5 -199 C 887.5 -191 874 -190.667 860 -198 C 835.333 -211.333 809.5 -221.667 782.5 -229 C 755.5 -236.333 728 -240 700 -240 C 660 -240 621.333 -233 584 -219 C 546.667 -205 512 -185.333 480 -160 Z M 280 -499 Z"
    transform="matrix(0.9999999999999999, 0, 0, 0.9999999999999999, 0, -2.2737367544323206e-13)" />
  <text style="font-family: Arial, sans-serif; font-size: 28px; white-space: pre;"
    transform="matrix(16.911418914794922, 0, 0, 15.870985031127928, -3331.6904296875, 9875.4091796875)">
    <tspan x="205.583" y="-644.283">?</tspan>
    <tspan x="205.583" dy="1em">​</tspan>
    <tspan x="205.583" dy="1em">​</tspan>
  </text>
</svg>