<?xml version="1.0" encoding="utf-8"?>
<svg viewBox="0 -960 960 960"  width="24px" height="24px"  fill="#000000" xmlns="http://www.w3.org/2000/svg">
  <path d="M 597.272 -65.853 L 228.925 -65.853 C 212.043 -65.853 197.59 -72.446 185.568 -85.631 C 173.545 -98.817 167.534 -114.667 167.534 -133.183 L 167.534 -671.825 C 167.534 -690.34 173.545 -706.192 185.568 -719.376 C 197.59 -732.562 212.043 -739.155 228.925 -739.155 L 597.272 -739.155 C 614.155 -739.155 628.607 -732.562 640.63 -719.376 C 652.652 -706.192 658.663 -690.34 658.663 -671.825 L 658.663 -133.183 C 658.663 -114.667 652.652 -98.817 640.63 -85.631 C 628.607 -72.446 614.155 -65.853 597.272 -65.853 Z M 228.925 -133.183 L 597.272 -133.183 L 597.272 -671.825 L 228.925 -671.825 L 228.925 -133.183 Z M 228.925 -133.183 L 228.925 -671.825 L 228.925 -133.183 Z" style=""/>
  <path d="M 785.299 -197.687 L 414.576 -197.687 C 397.584 -197.687 383.039 -204.31 370.939 -217.558 C 358.84 -230.805 352.789 -246.731 352.789 -265.334 L 352.789 -806.509 C 352.789 -825.112 358.84 -841.037 370.939 -854.285 C 383.039 -867.532 397.584 -874.156 414.576 -874.156 L 785.299 -874.156 C 802.29 -874.156 816.836 -867.532 828.936 -854.285 C 841.036 -841.037 847.086 -825.112 847.086 -806.509 L 847.086 -265.334 C 847.086 -246.731 841.036 -230.805 828.936 -217.558 C 816.836 -204.31 802.29 -197.687 785.299 -197.687 Z M 414.576 -265.334 L 785.299 -265.334 L 785.299 -806.509 L 414.576 -806.509 L 414.576 -265.334 Z M 414.576 -265.334 L 414.576 -806.509 L 414.576 -265.334 Z" style=""/>
  <rect x="115.838" y="-641.101" width="370.04" height="536.83" style="stroke: rgb(0, 0, 0); fill: rgb(255, 255, 255); stroke-width: 0px;" transform="matrix(1, 0, 0.0019530000863596797, 1, 114.01107788085943, -31.99205207824707)"/>
  <rect x="600.023" y="-768.788" width="153.489" height="1035.037" style="stroke: rgb(0, 0, 0); fill: rgb(255, 255, 255); fill-rule: nonzero; paint-order: stroke markers; stroke-width: 0px; stroke-miterlimit: 9.86;" transform="matrix(1, 0, -0.9468860626220703, 1, -509.565185546875, -244.9849853515625)"/>
  <rect x="462.076" y="-733.497" width="118.2" height="987.524" style="stroke: rgb(0, 0, 0);" transform="matrix(1, 0, -0.9468860626220703, 1, -260.69647216796875, -232.76318359375)"/>
</svg>