<svg xmlns="http://www.w3.org/2000/svg" width="30px" height="30px" viewBox="0 0 256 196" aria-labelledby="title desc"><title id="title">Icon: Magnifying glass highlighting a column in a 3-column table</title><desc id="desc">A table of three columns with the center column highlighted under a magnifying lens.</desc><defs><radialGradient id="brighten" cx="50%" cy="50%" r="50%"><stop offset="60%" stop-color="#fff" stop-opacity=".9"/><stop offset="100%" stop-color="#fff" stop-opacity=".1"/></radialGradient><clipPath id="lens-clip"><circle cx="152" cy="108" r="44"/></clipPath><filter id="shadow" x="-20%" y="-20%" width="140%" height="140%"><feDropShadow dx="0" dy="2" stdDeviation="2" flood-color="#000" flood-opacity=".25"/></filter><style>.table-bg{fill:#fff}.lens-stroke{stroke:#1f2937;stroke-linecap:round;stroke-linejoin:round;stroke-width:2}</style></defs><g transform="translate(16 16)"><rect width="224" height="160" class="table-bg" rx="10" ry="10"/><rect width="224" height="160" class="table-bg" fill="none" rx="10" ry="10" style="stroke:#0f172a;stroke-width:2;stroke-linecap:round;stroke-linejoin:round"/><path style="fill:#c7d2fe" d="M74.667 1h74.667v158H74.667z"/><path d="M74.667 1v157M149.333 1v157M0 32h224M0 64h224M0 96h224M0 128h224" style="stroke:#94a3b8;stroke-linecap:round;stroke-linejoin:round;stroke-width:1.25"/><g clip-path="url(#lens-clip)" opacity=".85"><path fill="url(#brighten)" d="M74.667 0h74.667v160H74.667z"/></g></g><g style="filter:url(#shadow)"><circle cx="152" cy="108" r="44" fill="#e2e8f0" class="lens-stroke" stroke="#1f2937"/><circle cx="152" cy="108" r="40" style="fill:rgba(255,255,255,.35)"/><ellipse cx="140" cy="96" rx="12" ry="6" style="fill:rgba(255,255,255,.55)"/><path d="M132 88c8-6 20-6 28 0" fill="none" stroke="#fff" stroke-opacity=".35" stroke-width="2"/><g transform="rotate(-45 252.96 -149.78)"><rect x="-8" width="16" height="44" rx="8" ry="8" style="fill:#1f2937"/><rect x="-8" y="32" width="16" height="12" rx="6" ry="6" style="fill:#0ea5e9"/></g><circle cx="152" cy="108" r="44" fill="none" class="lens-stroke"/></g></svg>