<svg viewBox="0 0 24 24" xmlns="http://www.w3.org/2000/svg">
    <path clip-rule="evenodd"
        d="M17 11a2 2 0 0 1 2-2h2V4h-4.143a5.67 5.67 0 0 1-2.99 3.802l-.973.487a2 2 0 0 1-1.788 0l-.973-.487A5.67 5.67 0 0 1 7.143 4H3v5h2a2 2 0 0 1 2 2v9h10zm-5-4.5-.973-.486A3.67 3.67 0 0 1 9 2.734.733.733 0 0 0 8.267 2H3a2 2 0 0 0-2 2v6a1 1 0 0 0 1 1h3v9a2 2 0 0 0 2 2h10a2 2 0 0 0 2-2v-9h3a1 1 0 0 0 1-1V4a2 2 0 0 0-2-2h-5.267a.733.733 0 0 0-.733.733c0 1.39-.785 2.66-2.027 3.28z"
        fill-rule="evenodd" />
</svg>