<?xml version="1.0" encoding="utf-8"?>
<svg viewBox="-7.646 -761.222 962.549 559.896" fill="#000000" xmlns="http://www.w3.org/2000/svg">
  <rect style="stroke: rgb(14, 255, 0); fill: rgb(68, 255, 45);" x="88.067" y="-700.101" width="820.597" height="438.331" rx="219.2" ry="219.2"/>
  <g transform="matrix(1, 0, 0, 1, -7.119235992431641, -0.9351630806920639)">
    <path d="M280-240q-100 0-170-70T40-480q0-100 70-170t170-70h400q100 0 170 70t70 170q0 100-70 170t-170 70H280Zm0-60h400q75 0 127.5-52.5T860-480q0-75-52.5-127.5T680-660H280q-75 0-127.5 52.5T100-480q0 75 52.5 127.5T280-300Zm400.94-79q42.06 0 71.56-29.44t29.5-71.5q0-42.06-29.44-71.56t-71.5-29.5q-42.06 0-71.56 29.44t-29.5 71.5q0 42.06 29.44 71.56t71.5 29.5ZM480-480Z" style=""/>
  </g>
</svg>