<?xml version="1.0" encoding="utf-8"?>
<svg viewBox="0 -960 960 960" fill="#000000" height="125px" width="125px" xmlns="http://www.w3.org/2000/svg" xmlns:bx="https://boxy-svg.com">
  <path d="M 482.499 -791.387 L 840.391 -231.697 L 124.606 -231.697 L 482.499 -791.387 Z" style="stroke: rgb(0, 0, 0); fill: rgb(255, 230, 37);" transform="matrix(1, 0, 0, 1, 0, 2.2737367544323206e-13)" bx:shape="triangle 124.606 -791.387 715.785 559.69 0.5 0 1@bfaa749f"/>
  <path d="M 83.185 -211.05 L 478.114 -893.202 L 873.045 -211.05 L 83.185 -211.05 Z M 207.05 -282.856 L 749.18 -282.856 L 478.114 -749.591 L 207.05 -282.856 Z M 478.114 -308.904 C 488.286 -308.904 496.813 -312.344 503.696 -319.225 C 510.577 -326.107 514.019 -334.633 514.019 -344.806 C 514.019 -354.978 510.577 -363.506 503.696 -370.387 C 496.813 -377.269 488.286 -380.71 478.114 -380.71 C 467.943 -380.71 459.417 -377.269 452.535 -370.387 C 445.654 -363.506 442.213 -354.978 442.213 -344.806 C 442.213 -334.633 445.654 -326.107 452.535 -319.225 C 459.417 -312.344 467.943 -308.904 478.114 -308.904 Z M 450.663 -406.967 L 508.169 -405.592 L 517.078 -608.656 L 438.475 -609.834 L 450.663 -406.967 Z M 478.114 -516.224 Z" style="stroke-width: 0px; stroke-miterlimit: 3.75; stroke-dashoffset: 1px;" transform="matrix(1, 0, 0, 1, 0, 2.2737367544323206e-13)"/>
</svg>