<svg xmlns="http://www.w3.org/2000/svg" width='24px' viewBox="0 0 399.027 399.027"
    xml:space="preserve"><path d="M380.703 107.713c0-8.584-3.343-16.655-9.412-22.725-4.941-4.94-11.206-8.073-17.995-9.069l.42-.42c12.529-12.53 12.529-32.918 0-45.449-11.679-11.68-30.183-12.468-42.791-2.374a31.97 31.97 0 0 0-9.084-18.258C295.775 3.353 287.707.008 279.117 0c-8.587 0-16.658 3.343-22.729 9.413l-91.095 91.095c-.752-8.408-4.383-16.215-10.424-22.256-10.139-10.138-26.634-10.138-36.771 0L58.409 137.94c-10.888 10.888-20.942 36.716-29.882 76.765-6.517 29.192-10.11 55.785-10.146 56.05a6.5 6.5 0 0 0 1.846 5.459l120.909 120.909a6.48 6.48 0 0 0 4.596 1.904 6.48 6.48 0 0 0 4.596-1.903l2.643-2.642a143.7 143.7 0 0 1 32.599-24.436 156.7 156.7 0 0 0 35.547-26.645l126.238-126.238c5.422-5.422 8.408-12.628 8.408-20.299-.008-7.837-3.109-15.155-8.733-20.606-4.03-3.907-8.977-6.358-14.178-7.381l38.439-38.439c6.07-6.071 9.412-14.141 9.412-22.725m-18.605 13.532L254.025 229.318a6.5 6.5 0 0 0 0 9.192 6.48 6.48 0 0 0 4.596 1.904 6.48 6.48 0 0 0 4.596-1.904l52.392-52.388c6.222-6.22 16.258-6.458 22.374-.531a15.6 15.6 0 0 1 4.781 11.278c0 4.192-1.634 8.134-4.601 11.101L211.924 334.209a143.7 143.7 0 0 1-32.599 24.435 156.7 156.7 0 0 0-33.575 24.708L31.705 269.307c4.379-30.816 18.044-104.322 35.896-122.175l59.688-59.688c5.069-5.069 13.317-5.069 18.387 0 4.365 4.365 6.769 10.168 6.769 16.34s-2.403 11.974-6.767 16.339l-49.363 49.363a6.498 6.498 0 0 0 4.596 11.096 6.48 6.48 0 0 0 4.596-1.904l49.361-49.361.001-.002 110.71-110.71a19.02 19.02 0 0 1 13.531-5.606 19.04 19.04 0 0 1 13.536 5.612c7.447 7.447 7.458 19.553.041 27.017l-94.124 94.125a6.498 6.498 0 0 0 5.842 10.976 6.47 6.47 0 0 0 3.354-1.785l109.699-109.7c7.462-7.462 19.604-7.461 27.064 0 7.462 7.461 7.462 19.602 0 27.064L227.186 183.644a6.5 6.5 0 0 0 9.193 9.192l98.656-98.656a19 19 0 0 1 13.531-5.605c5.111 0 9.917 1.991 13.531 5.605a19 19 0 0 1 5.605 13.532 19 19 0 0 1-5.604 13.533"/></svg>